<?xml version="1.0" encoding="UTF-8" standalone="no"?>
<svg
   role="img"
   viewBox="0 0 24 24"
   version="1.1"
   id="svg1"
   sodipodi:docname="docker.svg"
   inkscape:version="1.3.2 (091e20ef0f, 2023-11-25, custom)"
   xmlns:inkscape="http://www.inkscape.org/namespaces/inkscape"
   xmlns:sodipodi="http://sodipodi.sourceforge.net/DTD/sodipodi-0.dtd"
   xmlns="http://www.w3.org/2000/svg"
   xmlns:svg="http://www.w3.org/2000/svg">
  <defs
     id="defs1" />
  <sodipodi:namedview
     id="namedview1"
     pagecolor="#ffffff"
     bordercolor="#000000"
     borderopacity="0.25"
     inkscape:showpageshadow="2"
     inkscape:pageopacity="0.0"
     inkscape:pagecheckerboard="0"
     inkscape:deskcolor="#d1d1d1"
     inkscape:zoom="33.541667"
     inkscape:cx="11.985093"
     inkscape:cy="12"
     inkscape:window-width="2560"
     inkscape:window-height="1011"
     inkscape:window-x="1366"
     inkscape:window-y="32"
     inkscape:window-maximized="1"
     inkscape:current-layer="svg1" />
  <title
     id="title1">Docker</title>
  <path
     d="m 13.983,11.078 h 2.119 a 0.186,0.186 0 0 0 0.186,-0.185 V 9.006 A 0.186,0.186 0 0 0 16.102,8.82 h -2.119 a 0.185,0.185 0 0 0 -0.185,0.185 v 1.888 c 0,0.102 0.083,0.185 0.185,0.185 m -2.954,-5.43 h 2.118 A 0.186,0.186 0 0 0 13.333,5.462 V 3.574 A 0.186,0.186 0 0 0 13.147,3.389 h -2.118 a 0.185,0.185 0 0 0 -0.185,0.185 v 1.888 c 0,0.102 0.082,0.185 0.185,0.185 m 0,2.716 h 2.118 A 0.187,0.187 0 0 0 13.333,8.177 V 6.29 A 0.186,0.186 0 0 0 13.147,6.105 H 11.029 A 0.185,0.185 0 0 0 10.844,6.29 v 1.887 c 0,0.102 0.082,0.185 0.185,0.186 m -2.93,0 h 2.12 A 0.186,0.186 0 0 0 10.403,8.177 V 6.29 A 0.185,0.185 0 0 0 10.218,6.105 H 8.1 A 0.185,0.185 0 0 0 7.915,6.29 v 1.887 c 0,0.102 0.083,0.185 0.185,0.186 m -2.964,0 H 7.255 A 0.186,0.186 0 0 0 7.44,8.177 V 6.29 A 0.185,0.185 0 0 0 7.255,6.105 H 5.136 A 0.186,0.186 0 0 0 4.95,6.29 v 1.887 c 0,0.102 0.084,0.185 0.186,0.186 m 5.893,2.715 h 2.118 a 0.186,0.186 0 0 0 0.186,-0.185 V 9.006 A 0.186,0.186 0 0 0 13.147,8.82 h -2.118 a 0.185,0.185 0 0 0 -0.185,0.185 v 1.888 c 0,0.102 0.082,0.185 0.185,0.185 m -2.93,0 h 2.12 a 0.185,0.185 0 0 0 0.184,-0.185 V 9.006 A 0.185,0.185 0 0 0 10.219,8.82 H 8.099 A 0.185,0.185 0 0 0 7.915,9.005 v 1.888 c 0,0.102 0.083,0.185 0.185,0.185 m -2.964,0 H 7.255 A 0.185,0.185 0 0 0 7.44,10.893 V 9.006 A 0.185,0.185 0 0 0 7.256,8.82 H 5.136 A 0.186,0.186 0 0 0 4.95,9.006 v 1.887 c 0,0.102 0.084,0.185 0.186,0.185 m -2.92,0 h 2.12 A 0.185,0.185 0 0 0 4.52,10.893 V 9.006 A 0.185,0.185 0 0 0 4.336,8.82 H 2.216 A 0.185,0.185 0 0 0 2.032,9.005 v 1.888 c 0,0.102 0.082,0.185 0.185,0.185 M 23.763,9.89 C 23.698,9.839 23.091,9.38 21.809,9.38 21.471,9.381 21.133,9.41 20.799,9.467 20.551,7.767 19.146,6.937 19.083,6.901 L 18.739,6.702 18.513,7.029 c -0.284,0.438 -0.49,0.922 -0.612,1.43 -0.23,0.97 -0.09,1.882 0.403,2.661 -0.595,0.332 -1.55,0.413 -1.744,0.42 H 0.751 a 0.751,0.751 0 0 0 -0.75,0.748 11.376,11.376 0 0 0 0.692,4.062 c 0.545,1.428 1.355,2.48 2.41,3.124 1.18,0.723 3.1,1.137 5.275,1.137 0.983,0.003 1.963,-0.086 2.93,-0.266 a 12.248,12.248 0 0 0 3.823,-1.389 c 0.98,-0.567 1.86,-1.288 2.61,-2.136 1.252,-1.418 1.998,-2.997 2.553,-4.4 h 0.221 c 1.372,0 2.215,-0.549 2.68,-1.009 0.309,-0.293 0.55,-0.65 0.707,-1.046 L 24,10.077 Z"
     id="path1"
     style="mix-blend-mode:normal;fill:#2496ed;fill-opacity:1" />
</svg>
